<svg xmlns="http://www.w3.org/2000/svg" aria-hidden="true" style="position:absolute;width:0;height:0;overflow:hidden"><defs><symbol id="icon-linkedin" viewBox="0 0 40 40"><path d="M39.99 40v-.002H40v-14.67c0-7.177-1.545-12.705-9.935-12.705-4.033 0-6.74 2.213-7.845 4.312h-.117v-3.642h-7.955v26.705h8.283V26.775c0-3.482.66-6.848 4.972-6.848 4.249 0 4.312 3.973 4.312 7.072v13.002h8.275zM.66 13.295h8.293V40H.66V13.295zM4.803 0C2.151 0 0 2.152 0 4.803s2.152 4.848 4.803 4.848c2.652 0 4.803-2.197 4.803-4.848A4.806 4.806 0 0 0 4.803 0z"/></symbol><symbol id="icon-twitter" viewBox="0 0 40 40"><path d="M40 7.597a17.114 17.114 0 0 1-4.725 1.295 8.156 8.156 0 0 0 3.608-4.532 16.4 16.4 0 0 1-5.2 1.985 8.216 8.216 0 0 0-5.99-2.595c-4.54 0-8.195 3.685-8.195 8.203 0 .65.055 1.275.19 1.87-6.817-.332-12.85-3.6-16.902-8.578A8.261 8.261 0 0 0 1.663 9.39a8.212 8.212 0 0 0 3.642 6.815c-1.317-.025-2.61-.408-3.705-1.01v.09c0 3.985 2.842 7.295 6.57 8.057a8.161 8.161 0 0 1-2.15.27c-.525 0-1.055-.03-1.553-.14 1.062 3.248 4.078 5.635 7.662 5.713a16.473 16.473 0 0 1-10.168 3.497c-.673 0-1.318-.03-1.963-.112 3.633 2.342 7.938 3.68 12.58 3.68 15.09 0 23.34-12.5 23.34-23.335 0-.362-.013-.713-.03-1.06 1.627-1.155 2.995-2.598 4.11-4.258z"/></symbol><symbol id="icon-instagram" viewBox="0 0 40 40"><path d="M39.961 11.76c-.094-2.125-.438-3.586-.93-4.853a9.755 9.755 0 0 0-2.313-3.547 9.835 9.835 0 0 0-3.54-2.305c-1.274-.492-2.727-.836-4.853-.93C26.184.023 25.504 0 20.073 0s-6.111.024-8.244.117c-2.125.094-3.587.438-4.852.93A9.759 9.759 0 0 0 3.429 3.36 9.835 9.835 0 0 0 1.124 6.9C.632 8.174.288 9.627.194 11.752c-.102 2.141-.125 2.821-.125 8.252s.024 6.11.117 8.244c.094 2.125.438 3.586.93 4.853a9.859 9.859 0 0 0 2.313 3.547 9.835 9.835 0 0 0 3.54 2.305c1.274.492 2.727.836 4.853.93 2.133.094 2.813.117 8.244.117s6.111-.023 8.244-.117c2.125-.094 3.586-.437 4.852-.93a10.229 10.229 0 0 0 5.853-5.852c.492-1.274.836-2.727.93-4.852.094-2.134.117-2.813.117-8.244s-.008-6.111-.102-8.244zm-3.602 16.331c-.086 1.954-.414 3.009-.688 3.712a6.636 6.636 0 0 1-3.798 3.798c-.703.274-1.766.602-3.712.688-2.11.094-2.742.117-8.079.117s-5.978-.023-8.08-.117c-1.954-.086-3.008-.414-3.712-.688a6.178 6.178 0 0 1-2.297-1.492A6.232 6.232 0 0 1 4.5 31.812c-.274-.703-.602-1.766-.687-3.712-.094-2.11-.117-2.743-.117-8.08s.023-5.978.117-8.08c.086-1.954.414-3.008.687-3.712A6.09 6.09 0 0 1 6.001 5.93a6.21 6.21 0 0 1 2.297-1.492c.703-.274 1.766-.602 3.712-.688 2.11-.094 2.743-.117 8.08-.117 5.345 0 5.978.024 8.08.117 1.954.086 3.009.414 3.712.688.867.32 1.656.828 2.297 1.492a6.213 6.213 0 0 1 1.492 2.298c.274.703.601 1.766.688 3.712.094 2.11.117 2.743.117 8.08s-.024 5.962-.117 8.072z"/><path d="M20.074 9.728c-5.673 0-10.275 4.602-10.275 10.275s4.603 10.275 10.275 10.275c5.673 0 10.275-4.602 10.275-10.275S25.747 9.728 20.074 9.728zm0 16.941c-3.68 0-6.665-2.985-6.665-6.665s2.985-6.665 6.665-6.665a6.666 6.666 0 0 1 0 13.33zM33.155 9.322a2.399 2.399 0 1 1-4.798 0 2.399 2.399 0 0 1 4.798 0z"/></symbol><symbol id="icon-facebook" viewBox="0 0 40 40"><path d="M26.662 6.641h3.652V.281c-.63-.087-2.797-.282-5.32-.282-5.265 0-8.872 3.312-8.872 9.398v5.602h-5.81v7.11h5.81v17.89h7.123V22.111h5.575l.885-7.11h-6.462v-4.898c.002-2.055.555-3.462 3.418-3.462z"/></symbol></defs></svg>